<?xml version="1.0" standalone="no"?>
<!DOCTYPE svg PUBLIC "-//W3C//DTD SVG 1.0//EN" "http://www.w3.org/TR/2001/REC-SVG-20010904/DTD/svg10.dtd">
<svg xmlns="http://www.w3.org/2000/svg" xmlns:xlink="http://www.w3.org/1999/xlink" id="body_1" width="1000" height="1000">

<g transform="matrix(1 0 0 1 0 0)">
    <path d="M0 0L1000 0L1000 1000L0 1000z" stroke="none" fill="#FFFFFF" fill-rule="nonzero" />
	<g transform="matrix(1.765587 0 0 1.765587 378.45218 711.5985)">
		<g transform="matrix(1 0 0 1 0.24 -0.1)">
			<g>
			</g>
			<g transform="matrix(1 0 0 1 0 0)">
				<g transform="matrix(1 0 0 1 75.54432 98.19286)">
					<g transform="matrix(1 0 0 1 0 0)">
						<g transform="matrix(1 0 0 1 0 0)">
							<g transform="matrix(1 0 0 1 0 0)">
								<g transform="matrix(1 0 0 1 0 0)">
									<g transform="matrix(1 0 0 1 0 0)">
										<g transform="matrix(1.0892664 0 0 1.0892664 -1.0783714 38.124325)">
                                            <path transform="matrix(1 0 0 1 0 0)"  d="M9.7 0.7C 8.1 0.7 6.6600003 0.52666664 5.38 0.18C 4.0933337 -0.17333333 2.8666668 -0.6666667 1.7 -1.3L1.7 -1.3L1.7 -7.2L3.05 -7.2L4.55 -4.35C 5.1833334 -3.1166668 5.91 -2.2 6.73 -1.6C 7.5433335 -1 8.583334 -0.7 9.85 -0.7C 11.416667 -0.7 12.666667 -1.0433334 13.6 -1.73C 14.533334 -2.41 15 -3.3333335 15 -4.5C 15 -5.5666666 14.65 -6.4333334 13.95 -7.1C 13.25 -7.7666674 12 -8.383334 10.2 -8.95L10.2 -8.95L8 -9.65C 6.033334 -10.25 4.476667 -11.160001 3.33 -12.38C 2.1766667 -13.593334 1.6000001 -15.116668 1.6 -16.95C 1.6000001 -18.383335 1.9833333 -19.693333 2.75 -20.88C 3.516667 -22.060001 4.633333 -23 6.1 -23.7C 7.566667 -24.400002 9.35 -24.75 11.45 -24.75C 12.816667 -24.75 14.076667 -24.593334 15.23 -24.28C 16.376667 -23.960001 17.500002 -23.516666 18.6 -22.95L18.6 -22.95L18.3 -17.6L17 -17.6L15.45 -20.45C 14.916666 -21.516666 14.376667 -22.26 13.83 -22.68C 13.276667 -23.093334 12.433334 -23.3 11.3 -23.3C 10.1 -23.3 9.043333 -22.993332 8.13 -22.38C 7.21 -21.760002 6.75 -20.900002 6.75 -19.8C 6.75 -18.766666 7.133333 -17.926666 7.9 -17.28C 8.666667 -16.626667 9.900001 -16.016666 11.6 -15.45L11.6 -15.45L13.75 -14.8C 16.183334 -14.033334 17.916668 -13.016667 18.95 -11.75C 19.983334 -10.483334 20.5 -8.966667 20.5 -7.2C 20.5 -4.8333335 19.560001 -2.9266667 17.68 -1.48C 15.793334 -0.026666671 13.133334 0.7 9.7 0.7zM34.6 11.55L22.8 11.55L22.8 10.6L23.45 10.4C 24.116669 10.233334 24.583336 9.96 24.85 9.58C 25.116669 9.193334 25.25 8.65 25.25 7.95C 25.25 6.5833335 25.256668 5.2933335 25.27 4.08C 25.29 2.8600001 25.3 1.6833334 25.3 0.55L25.3 0.55L25.3 -13.2C 25.3 -14.233334 25.3 -15.126667 25.3 -15.88C 25.3 -16.626667 25.283333 -17.466667 25.25 -18.4C 25.25 -19.1 25.133335 -19.643333 24.9 -20.03C 24.666668 -20.41 24.216667 -20.666668 23.55 -20.8L23.55 -20.8L22.8 -20.95L22.8 -21.85L30.85 -24.75L31.45 -24.25L31.9 -22.4C 34.199997 -23.966667 36.8 -24.75 39.7 -24.75C 42.533333 -24.75 44.806667 -23.683334 46.52 -21.55C 48.24 -19.416668 49.1 -16.266666 49.1 -12.1C 49.1 -8.066668 48.15667 -4.926667 46.27 -2.68C 44.39 -0.4266667 41.833336 0.7 38.6 0.7C 37.300003 0.7 36.073334 0.5833333 34.92 0.35C 33.773335 0.11666667 32.75 -0.23333333 31.85 -0.7L31.85 -0.7L31.85 0.8C 31.85 1.8 31.856667 2.8833334 31.87 4.05C 31.89 5.216667 31.9 6.4833336 31.9 7.85C 31.9 9.183334 32.483334 10.016667 33.65 10.35L33.65 10.35L34.6 10.6L34.6 11.55zM36.25 -1.3C 38.01667 -1.3 39.40667 -2.0933332 40.42 -3.68C 41.440002 -5.26 41.95 -8 41.95 -11.9C 41.95 -15.766668 41.466667 -18.47667 40.5 -20.03C 39.533333 -21.576668 38.166668 -22.35 36.4 -22.35C 35.76667 -22.35 35.083336 -22.25 34.35 -22.05C 33.61667 -21.85 32.833336 -21.516666 32 -21.05L32 -21.05L32 -2.15C 33.333336 -1.5833334 34.75 -1.3 36.25 -1.3zM63.89 -24.75C 65.99667 -24.75 67.8 -24.316668 69.3 -23.45C 70.8 -22.583334 71.95667 -21.393333 72.77 -19.88C 73.590004 -18.36 74 -16.616667 74 -14.65C 74 -14.216667 73.98 -13.810001 73.94 -13.43C 73.90667 -13.043335 73.84334 -12.683334 73.75 -12.35L73.75 -12.35L58.7 -12.35C 58.72667 -8.916667 59.36667 -6.4500003 60.62 -4.95C 61.86667 -3.45 63.690002 -2.7 66.09 -2.7C 67.75667 -2.7 69.10667 -2.976667 70.14 -3.53C 71.17334 -4.076667 72.12667 -4.8500004 73 -5.85L73 -5.85L73.8 -5.1C 72.8 -3.2666667 71.44 -1.8433332 69.72 -0.83C 68 0.19 65.956665 0.7 63.59 0.7C 61.23 0.7 59.146667 0.19999999 57.34 -0.8C 55.54 -1.8 54.13333 -3.2433333 53.12 -5.13C 52.1 -7.01 51.59 -9.266666 51.59 -11.9C 51.59 -14.633333 52.183334 -16.95 53.37 -18.85C 54.550003 -20.75 56.083336 -22.210001 57.97 -23.23C 59.856667 -24.243334 61.83 -24.75 63.89 -24.75zM63.64 -23.3C 62.68 -23.3 61.84 -23.026667 61.12 -22.48C 60.406666 -21.926666 59.84 -20.96 59.42 -19.58C 59.006668 -18.193333 58.76667 -16.25 58.7 -13.75L58.7 -13.75L67.64 -13.75C 68.00667 -17.116667 67.87667 -19.55 67.25 -21.05C 66.61667 -22.55 65.41334 -23.3 63.64 -23.3zM88.79 0.7C 86.52333 0.7 84.473335 0.20666668 82.64 -0.78C 80.80667 -1.76 79.36667 -3.1933334 78.32 -5.08C 77.26666 -6.96 76.74 -9.25 76.74 -11.95C 76.74 -14.650001 77.32333 -16.95 78.49 -18.85C 79.65666 -20.75 81.21667 -22.210001 83.17 -23.23C 85.11667 -24.243334 87.25667 -24.75 89.59 -24.75C 91.490005 -24.75 93.106674 -24.433334 94.44 -23.8C 95.77334 -23.166668 96.79 -22.36 97.49 -21.38C 98.19 -20.393333 98.54001 -19.35 98.54 -18.25C 98.54001 -17.316668 98.26667 -16.6 97.72 -16.1C 97.16667 -15.6 96.45667 -15.35 95.59 -15.35C 94.65667 -15.35 93.9 -15.683334 93.32 -16.35C 92.73334 -17.016668 92.39001 -17.866669 92.29 -18.9C 92.25667 -19.566666 92.26666 -20.133333 92.32 -20.6C 92.36667 -21.066666 92.35667 -21.516666 92.29 -21.95C 92.15667 -22.516666 91.933334 -22.9 91.62 -23.1C 91.3 -23.300001 90.856674 -23.400002 90.29 -23.4C 88.19 -23.400002 86.583336 -22.560001 85.47 -20.88C 84.350006 -19.193333 83.79 -16.466667 83.79 -12.7C 83.79 -9.466667 84.40667 -6.9833336 85.64 -5.25C 86.87334 -3.516667 88.79 -2.65 91.39 -2.65C 92.92334 -2.65 94.19 -2.9433336 95.19 -3.53C 96.19001 -4.11 97.106674 -4.9500003 97.94 -6.05L97.94 -6.05L98.74 -5.45C 97.90666 -3.45 96.63333 -1.9266667 94.92 -0.88C 93.2 0.17333332 91.15666 0.7 88.79 0.7zM110.49 0.7C 108.42334 0.7 106.8 0.19 105.62 -0.83C 104.433334 -1.8433332 103.840004 -3.5 103.84 -5.8C 103.840004 -6.6000004 103.850006 -7.3600006 103.87 -8.08C 103.88334 -8.793333 103.89 -9.633333 103.89 -10.6L103.89 -10.6L103.89 -22.45L100.34 -22.45L100.34 -23.55L101.69 -23.75C 102.65667 -23.916668 103.48334 -24.216667 104.17 -24.65C 104.850006 -25.083334 105.47334 -25.683334 106.04 -26.45L106.04 -26.45L109.29 -30.95L110.79 -30.95L110.64 -24L116.34 -24L116.34 -22.45L110.59 -22.45L110.59 -5.4C 110.590004 -4.2000003 110.850006 -3.3000002 111.37 -2.7C 111.88334 -2.1000001 112.52334 -1.8000001 113.29 -1.8C 113.95667 -1.8000001 114.55667 -1.9566667 115.09 -2.27C 115.62334 -2.5900002 116.15667 -3.016667 116.69 -3.55L116.69 -3.55L117.34 -2.8C 116.70667 -1.7 115.82334 -0.8433333 114.69 -0.23C 113.55667 0.39 112.15667 0.7 110.49 0.7zM129.49 0.7C 127.52334 0.7 125.75667 0.25666666 124.19 -0.63C 122.62334 -1.5100001 121.39667 -2.8766668 120.51 -4.73C 119.630005 -6.576667 119.19001 -8.933333 119.19 -11.8C 119.19001 -14.666667 119.69001 -17.060001 120.69 -18.98C 121.69001 -20.893333 123.023346 -22.333334 124.69 -23.3C 126.356674 -24.266666 128.19 -24.75 130.19 -24.75C 131.39001 -24.75 132.54001 -24.61 133.64 -24.33C 134.73999 -24.043335 135.70667 -23.616667 136.54 -23.05L136.54 -23.05L136.54 -29.55C 136.54 -30.250002 136.43 -30.760002 136.21 -31.08C 135.99667 -31.393333 135.55667 -31.633333 134.89 -31.8L134.89 -31.8L133.89 -32L133.89 -32.95L142.59 -35.1L143.24 -34.65L143.04 -27.6L143.04 -3.55C 143.04001 -2.9166667 143.15668 -2.3933334 143.39 -1.98C 143.62335 -1.5600001 144.04001 -1.2666667 144.64 -1.1L144.64 -1.1L145.19 -0.95L145.19 0L136.89 0.55L136.44 -1.55C 135.54001 -0.85 134.50667 -0.3 133.34 0.1C 132.17334 0.5 130.89001 0.7 129.49 0.7zM132.24 -1.6C 133.67334 -1.6000001 135.02335 -2.0666666 136.29 -3L136.29 -3L136.29 -21.6C 135.05667 -22.366667 133.72333 -22.75 132.29 -22.75C 130.65666 -22.75 129.25667 -21.893333 128.09 -20.18C 126.92334 -18.460001 126.340004 -15.700001 126.34 -11.9C 126.340004 -8.1 126.89 -5.4333334 127.99 -3.9C 129.09 -2.3666668 130.50667 -1.6000001 132.24 -1.6zM159.94 0.7C 157.47334 0.7 155.31334 0.18333331 153.46 -0.85C 151.61334 -1.8833334 150.18001 -3.3500001 149.16 -5.25C 148.14667 -7.1500006 147.64 -9.416668 147.64 -12.05C 147.64 -14.683334 148.18 -16.95 149.26 -18.85C 150.34668 -20.75 151.81334 -22.210001 153.66 -23.23C 155.51334 -24.243334 157.60667 -24.75 159.94 -24.75C 162.27335 -24.75 164.36334 -24.243334 166.21 -23.23C 168.06334 -22.210001 169.53 -20.76 170.61 -18.88C 171.69669 -16.993332 172.24002 -14.716667 172.24 -12.05C 172.24002 -9.416668 171.73001 -7.143334 170.71 -5.23C 169.69667 -3.31 168.27335 -1.8433332 166.44 -0.83C 164.60667 0.19 162.44 0.7 159.94 0.7zM159.94 -0.7C 161.14001 -0.7 162.11334 -1.0266666 162.86 -1.68C 163.61334 -2.3266668 164.15668 -3.4666667 164.49 -5.1C 164.82333 -6.7333336 164.99 -9.016667 164.99 -11.95C 164.99 -14.916667 164.82333 -17.226665 164.49 -18.88C 164.15668 -20.526667 163.61334 -21.676666 162.86 -22.33C 162.11334 -22.976665 161.14001 -23.3 159.94 -23.3C 158.74 -23.3 157.77333 -22.976665 157.04 -22.33C 156.30667 -21.676666 155.76334 -20.526667 155.41 -18.88C 155.06334 -17.226665 154.89 -14.916667 154.89 -11.95C 154.89 -9.016667 155.06334 -6.7333336 155.41 -5.1C 155.76334 -3.4666667 156.30667 -2.3266668 157.04 -1.68C 157.77333 -1.0266666 158.74 -0.7 159.94 -0.7zM186.78 0.7C 184.51334 0.7 182.46335 0.20666668 180.63 -0.78C 178.79668 -1.76 177.35667 -3.1933334 176.31 -5.08C 175.25667 -6.96 174.73 -9.25 174.73 -11.95C 174.73 -14.650001 175.31332 -16.95 176.48 -18.85C 177.64667 -20.75 179.20667 -22.210001 181.16 -23.23C 183.10667 -24.243334 185.24667 -24.75 187.58 -24.75C 189.48 -24.75 191.09666 -24.433334 192.43 -23.8C 193.76334 -23.166668 194.78 -22.36 195.48 -21.38C 196.18001 -20.393333 196.53 -19.35 196.53 -18.25C 196.53 -17.316668 196.25668 -16.6 195.71 -16.1C 195.15668 -15.6 194.44669 -15.35 193.58 -15.35C 192.64667 -15.35 191.89 -15.683334 191.31 -16.35C 190.72333 -17.016668 190.38 -17.866669 190.28 -18.9C 190.24667 -19.566666 190.25667 -20.133333 190.31 -20.6C 190.35667 -21.066666 190.34668 -21.516666 190.28 -21.95C 190.14667 -22.516666 189.92334 -22.9 189.61 -23.1C 189.29001 -23.300001 188.84668 -23.400002 188.28 -23.4C 186.18001 -23.400002 184.57333 -22.560001 183.46 -20.88C 182.34 -19.193333 181.78 -16.466667 181.78 -12.7C 181.78 -9.466667 182.39667 -6.9833336 183.63 -5.25C 184.86334 -3.516667 186.78 -2.65 189.38 -2.65C 190.91333 -2.65 192.18 -2.9433336 193.18 -3.53C 194.18 -4.11 195.09666 -4.9500003 195.93 -6.05L195.93 -6.05L196.73 -5.45C 195.89667 -3.45 194.62335 -1.9266667 192.91 -0.88C 191.19 0.17333332 189.14667 0.7 186.78 0.7zM210.78 0L199.18 0L199.18 -0.95L199.93 -1.2C 201.06335 -1.5333335 201.63002 -2.3500001 201.63 -3.65L201.63 -3.65L201.63 -29.55C 201.63002 -30.216667 201.49667 -30.726667 201.23 -31.08C 200.96335 -31.426668 200.49667 -31.683334 199.83 -31.85L199.83 -31.85L199.18 -32.05L199.18 -33L207.93 -35.1L208.58 -34.65L208.38 -27.6L208.38 -3.65C 208.38002 -2.3166666 208.94669 -1.4833333 210.08 -1.15L210.08 -1.15L210.78 -0.95L210.78 0zM225.98 0L217.48 0L208.43 -12.5L217.28 -20.7C 217.71333 -21.066668 217.96333 -21.476667 218.03 -21.93C 218.09668 -22.376667 217.81335 -22.683334 217.18 -22.85L217.18 -22.85L216.38 -23.05L216.38 -24L224.18 -24L224.18 -23.05L222.73 -22.7C 221.99667 -22.5 221.39667 -22.226665 220.93 -21.88C 220.46335 -21.526667 219.91335 -21.066668 219.28 -20.5L219.28 -20.5L213.78 -15.35L222.28 -3.7C 222.81334 -3 223.29666 -2.46 223.73 -2.08C 224.16333 -1.6933334 224.74667 -1.3666667 225.48 -1.1L225.48 -1.1L225.98 -0.95L225.98 0z" stroke="none" fill="#050505" fill-rule="nonzero" />
										</g>
									</g>
								</g>
							</g>
						</g>
					</g>
				</g>
				<g>
                    <path d="M0 123.6C 0 55.337997 55.338 0 123.6 0C 181.011 0 229.27899 39.142 243.17499 92.195L243.17499 92.195L240.80399 92.195C 226.96599 40.422 179.736 2.2910004 123.59998 2.2910004C 56.60298 2.2910004 2.290985 56.603 2.290985 123.6C 2.290985 190.597 56.602985 244.909 123.59998 244.909C 179.736 244.909 226.96597 206.77899 240.80399 155.005L240.80399 155.005L243.17499 155.005C 229.27899 208.05801 181.01099 247.20001 123.59999 247.20001C 55.33799 247.20001 -7.6293945E-06 191.86201 -7.6293945E-06 123.60001L-7.6293945E-06 123.60001L0 123.6z" stroke="#FFFFFF" stroke-width="1" fill="#050505" fill-rule="nonzero" stroke-opacity="0" />
				</g>
			</g>
		</g>
	</g>
</g>
</svg>